<svg width="104" height="104" viewBox="0 0 104 104" fill="none" xmlns="http://www.w3.org/2000/svg">
<path d="M78 104H26C24.869 104 23.9265 103.129 23.8398 102L19.6517 47.5497C11.0392 46.5487 4.33333 39.2102 4.33333 30.3333C4.33333 20.7588 12.3023 12.6728 21.736 12.6728C23.7077 12.6728 25.6425 13.0563 27.4473 13.7995C30.4893 5.43617 39.9512 0 52 0C63.3187 0 71.2357 4.576 76.1367 13.975C78.0585 13.117 80.1407 12.6707 82.264 12.6707C91.6976 12.6728 99.6666 20.7588 99.6666 30.3333C99.6666 39.2102 92.9608 46.5487 84.3483 47.5497L80.1602 102C80.0735 103.129 79.131 104 78 104ZM28.0063 99.6667H75.9915L80.171 45.3332C80.2598 44.2043 81.2023 43.3333 82.3333 43.3333C89.5028 43.3333 95.3333 37.5028 95.3333 30.3333C95.3333 22.4792 88.4455 17.0062 82.264 17.0062C80.1363 17.0062 78.1495 17.5998 76.362 18.7763C75.8312 19.1252 75.1681 19.2248 74.5593 19.0428C73.9483 18.863 73.4478 18.4253 73.19 17.8403C69.1123 8.6255 62.3805 4.33333 52 4.33333C40.8265 4.33333 32.3722 9.56583 30.9617 17.3528C30.8317 18.0678 30.3528 18.6702 29.6833 18.9562C29.016 19.2465 28.2468 19.1772 27.6402 18.7763C25.8527 17.5998 23.8658 17.0062 21.7382 17.0062C15.5545 17.0062 8.66666 22.4792 8.66666 30.3333C8.66666 37.5028 14.4972 43.3333 21.6667 43.3333C22.7977 43.3333 23.7402 44.2043 23.8268 45.3332L28.0063 99.6667Z" fill="white"/>
<path d="M79.3541 86.6666H24.6458C23.4498 86.6666 22.4792 85.6981 22.4792 84.5C22.4792 83.3018 23.4498 82.3333 24.6458 82.3333H79.3541C80.5501 82.3333 81.5208 83.3018 81.5208 84.5C81.5208 85.6981 80.5501 86.6666 79.3541 86.6666Z" fill="white"/>
<path d="M41.1667 86.6667C39.9707 86.6667 39 85.6982 39 84.5V67.1667C39 65.9685 39.9707 65 41.1667 65C42.3627 65 43.3333 65.9685 43.3333 67.1667V84.5C43.3333 85.6982 42.3627 86.6667 41.1667 86.6667Z" fill="white"/>
<path d="M52 86.6667C50.804 86.6667 49.8333 85.6982 49.8333 84.5V62.8333C49.8333 61.6352 50.804 60.6667 52 60.6667C53.196 60.6667 54.1667 61.6352 54.1667 62.8333V84.5C54.1667 85.6982 53.196 86.6667 52 86.6667Z" fill="white"/>
<path d="M62.8333 86.6667C61.6373 86.6667 60.6667 85.6982 60.6667 84.5V67.1667C60.6667 65.9685 61.6373 65 62.8333 65C64.0293 65 65 65.9685 65 67.1667V84.5C65 85.6982 64.0293 86.6667 62.8333 86.6667Z" fill="white"/>
</svg>
