<svg width="248" height="248" viewBox="0 0 248 248" fill="none" xmlns="http://www.w3.org/2000/svg">
<path d="M238.611 104.61C229.447 55.8194 192.181 18.5535 143.391 9.38912C142.464 9.23412 141.534 9.09075 140.601 8.95512C135.935 8.28862 131.75 11.9505 131.75 16.6664V116.25H231.334C236.05 116.25 239.708 112.065 239.041 107.4C238.909 106.466 238.766 105.536 238.611 104.61Z" fill="#CF9E76"/>
<path d="M107.934 23.5639C49.6465 27.9814 4.22765 78.4494 7.96702 138.671C11.3189 192.704 55.2963 236.681 109.325 240.033C169.547 243.772 220.019 198.35 224.436 140.066C224.777 135.579 221.177 131.75 216.675 131.75H116.25V31.3255C116.25 26.8227 112.422 23.2229 107.934 23.5639Z" fill="#CF9E76"/>
<path d="M116.25 34.875C62.7479 34.875 19.375 78.2479 19.375 131.75C19.375 185.252 62.7479 228.625 116.25 228.625C169.752 228.625 213.125 185.252 213.125 131.75H116.25V34.875Z" fill="#DFB28B"/>
<path d="M131.75 19.375V116.25H228.625C228.625 64.8869 183.113 19.375 131.75 19.375Z" fill="#DFB28B"/>
<path d="M216.655 116.25C213.458 77.5542 186.589 45.5894 150.552 34.875L143.375 33.0499C139.581 32.2439 135.699 31.6742 131.75 31.3448V116.25H216.655Z" fill="#FCD770"/>
<path d="M116.25 131.75V46.5C69.1688 46.5 31.0001 84.6687 31.0001 131.75C31.0001 178.831 69.1688 217 116.25 217C163.331 217 201.5 178.831 201.5 131.75H116.25Z" fill="#FCD770"/>
<path d="M89.125 197.625C93.4052 197.625 96.875 194.155 96.875 189.875C96.875 185.595 93.4052 182.125 89.125 182.125C84.8448 182.125 81.375 185.595 81.375 189.875C81.375 194.155 84.8448 197.625 89.125 197.625Z" fill="#FC6E51"/>
<path d="M155 100.75C159.28 100.75 162.75 97.2802 162.75 93C162.75 88.7198 159.28 85.25 155 85.25C150.72 85.25 147.25 88.7198 147.25 93C147.25 97.2802 150.72 100.75 155 100.75Z" fill="#B27946"/>
<path d="M186 73.625C190.28 73.625 193.75 70.1552 193.75 65.875C193.75 61.5948 190.28 58.125 186 58.125C181.72 58.125 178.25 61.5948 178.25 65.875C178.25 70.1552 181.72 73.625 186 73.625Z" fill="#FC6E51"/>
<path d="M100.75 147.25C105.03 147.25 108.5 143.78 108.5 139.5C108.5 135.22 105.03 131.75 100.75 131.75C96.4698 131.75 93 135.22 93 139.5C93 143.78 96.4698 147.25 100.75 147.25Z" fill="#B27946"/>
<path d="M170.5 170.5C174.78 170.5 178.25 167.03 178.25 162.75C178.25 158.47 174.78 155 170.5 155C166.22 155 162.75 158.47 162.75 162.75C162.75 167.03 166.22 170.5 170.5 170.5Z" fill="#B27946"/>
<path d="M62 139.5C66.2802 139.5 69.75 136.03 69.75 131.75C69.75 127.47 66.2802 124 62 124C57.7198 124 54.25 127.47 54.25 131.75C54.25 136.03 57.7198 139.5 62 139.5Z" fill="#FC6E51"/>
<path d="M216.674 127.875H120.125V31.3255C120.125 28.0899 118.761 24.9666 116.382 22.7617C114.022 20.5801 110.868 19.4602 107.64 19.7005C46.7519 24.3117 0.302261 77.7906 4.09588 138.911C7.59501 195.269 52.7271 240.405 109.085 243.9C111.426 244.044 113.751 244.117 116.068 244.117C174.228 244.113 223.863 198.915 228.299 140.36C228.54 137.167 227.424 133.982 225.238 131.618C223.033 129.239 219.91 127.875 216.674 127.875ZM109.562 236.166C57.102 232.911 15.0893 190.894 11.8343 138.434C8.30026 81.5183 51.5414 31.7246 108.225 27.4272C109.275 27.3342 110.321 27.7024 111.116 28.4464C111.929 29.202 112.375 30.225 112.375 31.3255V42.7219C65.0225 44.7601 27.125 83.9053 27.125 131.75C27.125 180.897 67.1034 220.875 116.25 220.875C157.937 220.875 193.638 192.553 203.062 152.005L195.517 150.249C186.907 187.267 154.314 213.125 116.25 213.125C71.3813 213.125 34.875 176.619 34.875 131.75C34.875 119.772 37.541 108.43 42.2104 98.177C42.6792 98.5683 43.1714 99.0217 43.7604 99.6146C45.8761 101.73 48.7707 104.625 54.25 104.625C59.7292 104.625 62.6239 101.73 64.7396 99.6146C66.6384 97.7158 67.5722 96.875 69.75 96.875V89.125C64.2707 89.125 61.3761 92.0196 59.2604 94.1353C57.3616 96.0341 56.4277 96.875 54.25 96.875C52.0722 96.875 51.1384 96.0341 49.2396 94.1353C48.3057 93.2015 47.1975 92.1203 45.8025 91.1981C59.2681 67.8977 83.9131 51.9211 112.375 50.5687V135.625H197.493C197.381 138.051 197.199 140.469 196.873 142.852L204.553 143.898C204.925 141.17 205.123 138.399 205.243 135.625H216.674C217.775 135.625 218.798 136.071 219.554 136.884C220.29 137.683 220.65 138.709 220.573 139.775C216.271 196.459 166.547 239.742 109.562 236.166Z" fill="black"/>
<path d="M89.1251 178.25C82.7158 178.25 77.5001 183.466 77.5001 189.875C77.5001 196.284 82.7158 201.5 89.1251 201.5C95.5343 201.5 100.75 196.284 100.75 189.875C100.75 183.466 95.5343 178.25 89.1251 178.25ZM89.1251 193.75C86.9861 193.75 85.2501 192.014 85.2501 189.875C85.2501 187.736 86.9861 186 89.1251 186C91.2641 186 93.0001 187.736 93.0001 189.875C93.0001 192.014 91.2641 193.75 89.1251 193.75Z" fill="black"/>
<path d="M143.375 93C143.375 99.4093 148.591 104.625 155 104.625C161.409 104.625 166.625 99.4093 166.625 93C166.625 86.5907 161.409 81.375 155 81.375C148.591 81.375 143.375 86.5907 143.375 93ZM158.875 93C158.875 95.139 157.139 96.875 155 96.875C152.861 96.875 151.125 95.139 151.125 93C151.125 90.861 152.861 89.125 155 89.125C157.139 89.125 158.875 90.861 158.875 93Z" fill="black"/>
<path d="M100.75 127.875C94.3408 127.875 89.1251 133.091 89.1251 139.5C89.1251 145.909 94.3408 151.125 100.75 151.125C107.159 151.125 112.375 145.909 112.375 139.5C112.375 133.091 107.159 127.875 100.75 127.875ZM100.75 143.375C98.6111 143.375 96.8751 141.639 96.8751 139.5C96.8751 137.361 98.6111 135.625 100.75 135.625C102.889 135.625 104.625 137.361 104.625 139.5C104.625 141.639 102.889 143.375 100.75 143.375Z" fill="black"/>
<path d="M170.5 151.125C164.091 151.125 158.875 156.341 158.875 162.75C158.875 169.159 164.091 174.375 170.5 174.375C176.909 174.375 182.125 169.159 182.125 162.75C182.125 156.341 176.909 151.125 170.5 151.125ZM170.5 166.625C168.361 166.625 166.625 164.889 166.625 162.75C166.625 160.611 168.361 158.875 170.5 158.875C172.639 158.875 174.375 160.611 174.375 162.75C174.375 164.889 172.639 166.625 170.5 166.625Z" fill="black"/>
<path d="M62 120.125C55.5907 120.125 50.375 125.341 50.375 131.75C50.375 138.159 55.5907 143.375 62 143.375C68.4093 143.375 73.625 138.159 73.625 131.75C73.625 125.341 68.4093 120.125 62 120.125ZM62 135.625C59.861 135.625 58.125 133.889 58.125 131.75C58.125 129.611 59.861 127.875 62 127.875C64.139 127.875 65.875 129.611 65.875 131.75C65.875 133.889 64.139 135.625 62 135.625Z" fill="black"/>
<path d="M135.625 193.75C133.447 193.75 132.513 192.909 130.615 191.01C128.499 188.895 125.604 186 120.125 186V193.75C122.303 193.75 123.237 194.591 125.135 196.49C127.251 198.605 130.146 201.5 135.625 201.5C141.104 201.5 143.999 198.605 146.115 196.49C148.013 194.591 148.947 193.75 151.125 193.75V186C145.646 186 142.751 188.895 140.635 191.01C138.737 192.909 137.803 193.75 135.625 193.75Z" fill="black"/>
<path d="M242.881 106.853C242.742 105.881 242.594 104.912 242.428 103.951L242.416 103.893C232.973 53.6145 194.386 15.0273 144.049 5.57225C143.088 5.40563 142.12 5.25838 141.151 5.11888C137.811 4.65388 134.451 5.64588 131.901 7.85075C129.344 10.075 127.875 13.2874 127.875 16.6664V120.125H231.334C234.713 120.125 237.925 118.656 240.145 116.099C242.358 113.549 243.354 110.182 242.881 106.853ZM234.294 111.019C233.535 111.895 232.485 112.375 231.334 112.375H220.081C215.5 74.4775 188.434 42.1019 151.652 31.1589L149.443 38.5911C161.138 42.067 171.732 47.9415 180.819 55.5249C177.018 57.4353 174.375 61.3335 174.375 65.875C174.375 72.2843 179.591 77.5 186 77.5C190.266 77.5 193.963 75.1634 195.986 71.7263C204.592 83.5566 210.316 97.4795 212.276 112.375H135.625V67.5219C135.978 67.8435 136.338 68.1923 136.76 68.6146C138.876 70.7304 141.771 73.625 147.25 73.625C152.729 73.625 155.624 70.7304 157.74 68.6146C159.638 66.7159 160.572 65.875 162.75 65.875V58.125C157.271 58.125 154.376 61.0196 152.26 63.1354C150.362 65.0341 149.428 65.875 147.25 65.875C145.072 65.875 144.138 65.0341 142.24 63.1354C140.694 61.5893 138.713 59.6324 135.625 58.6908V35.6888C137.962 35.991 140.287 36.3553 142.569 36.8396L144.181 29.2563C141.372 28.6634 138.504 28.2371 135.625 27.8923V16.6664C135.625 15.5155 136.106 14.4693 136.981 13.7059C137.845 12.958 138.946 12.6364 140.058 12.7953C140.953 12.9193 141.848 13.0588 142.678 13.1983C189.786 22.0449 225.94 58.1909 234.794 105.295C234.945 106.175 235.081 107.055 235.205 107.95C235.364 109.066 235.042 110.159 234.294 111.019ZM186 62C188.139 62 189.875 63.736 189.875 65.875C189.875 68.014 188.139 69.75 186 69.75C183.861 69.75 182.125 68.014 182.125 65.875C182.125 63.736 183.861 62 186 62Z" fill="black"/>
<path d="M197.625 89.125H189.875V96.875H197.625V89.125Z" fill="black"/>
<path d="M182.125 96.875H174.375V104.625H182.125V96.875Z" fill="black"/>
<path d="M151.125 147.25H143.375V155H151.125V147.25Z" fill="black"/>
<path d="M127.875 158.875H120.125V166.625H127.875V158.875Z" fill="black"/>
<path d="M81.3751 151.125H73.6251V158.875H81.3751V151.125Z" fill="black"/>
<path d="M104.625 69.75H96.8751V77.5H104.625V69.75Z" fill="black"/>
<path d="M93.0001 96.875H85.2501V104.625H93.0001V96.875Z" fill="black"/>
<path d="M62.0001 162.75H54.2501V170.5H62.0001V162.75Z" fill="black"/>
</svg>
